# xmcd
# 
# Track frame offsets:
#     182
#     16265
#     29615
#     49135
#     65402
#     80177
#     96137
#     113890
#     130450
#     149037
#     167657
#     182352
#     195757
#     208792
# 
# Disc length: 2986
# 
# Revision: 3
# Processed by: cddbd v1.5.2PL0 Copyright (c) Steve Scherf et al.
# Submitted via: BonkEnc v1.0rc1
# 
DISCID=c70ba80e
DTITLE=Various Artist - Number One Country  Love  Songs
DYEAR=2000
DGENRE=Country
TTITLE0=Randy Travis - Forever And Ever Amen
TTITLE1=Dolly Parton - Here You Come Again
TTITLE2=Restless Heart - I'll Still Be Loving You
TTITLE3=Alabama - Close Enough To Perfect
TTITLE4=The Forester Sisters - I Fell In Love Again Last Night
TTITLE5=Nitty Gritty Dirt Band - Modern Day Romance
TTITLE6=Eddie Rabbitt with Crystal Gayle - You And I
TTITLE7=Oak Ridge Boys - Fancy Free
TTITLE8=Steve Wariner - Some Fools Never Learn
TTITLE9=Juice Newton - The Sweetest Thing (I've Ever Known)
TTITLE10=Ronnie Milsap - There's No Gettin' Over Me
TTITLE11=Conway Twitty - Slow Hand
TTITLE12=Michael Martin Murphey - What's Forever For
TTITLE13=Frizzell and West - You're The Reason God Made Oklahoma
EXTD=
EXTT0=
EXTT1=
EXTT2=
EXTT3=
EXTT4=
EXTT5=
EXTT6=
EXTT7=
EXTT8=
EXTT9=
EXTT10=
EXTT11=
EXTT12=
EXTT13=
PLAYORDER=
